<svg width="1200" height="600" viewBox="0 0 1200 600" xmlns="http://www.w3.org/2000/svg">
  <defs>
    <linearGradient id="g1" x1="0" y1="0" x2="1" y2="1">
      <stop offset="0" stop-color="#6ec6ff"/>
      <stop offset="1" stop-color="#e9eef5"/>
    </linearGradient>
    <linearGradient id="g2" x1="0" y1="1" x2="1" y2="0">
      <stop offset="0" stop-color="#3aaed8" stop-opacity="0.25"/>
      <stop offset="1" stop-color="#ffffff" stop-opacity="0"/>
    </linearGradient>
    <filter id="blur" x="-20%" y="-20%" width="140%" height="140%">
      <feGaussianBlur stdDeviation="18"/>
    </filter>
  </defs>

  <rect width="1200" height="600" fill="url(#g1)"/>
  <path d="M0,420 C240,360 360,520 600,460 C840,400 960,520 1200,430 L1200,600 L0,600 Z" fill="#ffffff" opacity="0.55"/>
  <circle cx="220" cy="180" r="120" fill="url(#g2)" filter="url(#blur)"/>
  <circle cx="980" cy="170" r="160" fill="url(#g2)" filter="url(#blur)"/>

  <g opacity="0.85">
    <rect x="710" y="210" width="360" height="240" rx="18" fill="#ffffff" opacity="0.9"/>
    <rect x="740" y="250" width="300" height="16" rx="8" fill="#d7e6f7"/>
    <rect x="740" y="280" width="240" height="16" rx="8" fill="#d7e6f7"/>
    <rect x="740" y="320" width="280" height="14" rx="7" fill="#e9eef5"/>
    <rect x="740" y="345" width="260" height="14" rx="7" fill="#e9eef5"/>
    <rect x="740" y="370" width="210" height="14" rx="7" fill="#e9eef5"/>
    <rect x="740" y="410" width="140" height="28" rx="14" fill="#6ec6ff" opacity="0.9"/>
  </g>

  <g transform="translate(120,210)" opacity="0.95">
    <rect x="0" y="0" width="420" height="240" rx="18" fill="#ffffff" opacity="0.92"/>
    <circle cx="70" cy="70" r="28" fill="#6ec6ff"/>
    <rect x="120" y="55" width="250" height="18" rx="9" fill="#d7e6f7"/>
    <rect x="30" y="120" width="360" height="14" rx="7" fill="#e9eef5"/>
    <rect x="30" y="145" width="320" height="14" rx="7" fill="#e9eef5"/>
    <rect x="30" y="170" width="280" height="14" rx="7" fill="#e9eef5"/>
    <rect x="30" y="205" width="160" height="22" rx="11" fill="#3aaed8" opacity="0.85"/>
  </g>
</svg>
